Coordinates
version=1
nRows=14
nColumns=46
inDegrees=yes

Units are S.I. units (second, meters, Newtons, ...)
Angles are in degrees.

endheader
time	pelvis_tilt	pelvis_list	pelvis_rotation	pelvis_tx	pelvis_ty	pelvis_tz	bb_angle	bb_tx	bb_ty	bb_tz	hip_flexion_r	hip_adduction_r	hip_rotation_r	knee_angle_r	knee_angle_r_beta	ankle_angle_r	subtalar_angle_r	mtp_angle_r	crank_angle_r	hip_flexion_l	hip_adduction_l	hip_rotation_l	knee_angle_l	knee_angle_l_beta	ankle_angle_l	subtalar_angle_l	mtp_angle_l	crank_angle_l	lumbar_extension	lumbar_bending	lumbar_rotation	arm_flex_r	arm_add_r	arm_rot_r	elbow_flex_r	pro_sup_r	wrist_flex_r	wrist_dev_r	arm_flex_l	arm_add_l	arm_rot_l	elbow_flex_l	pro_sup_l	wrist_flex_l	wrist_dev_l
      5.00500000	    -12.86299660	     -7.45159888	     -8.54489540	      0.18698729	      1.05276713	     -0.26496378	      0.00000000	      0.50000000	      0.00000000	      0.25000000	     82.55052032	      9.02854597	      8.75543138	    115.50352159	      2.01591675	     15.46302021	      4.67491578	      0.00000000	      0.00000000	     33.95497637	    -15.08325721	     -7.86733854	     33.66170707	      0.58750762	     -9.08882736	     -2.23732639	      0.00000000	      0.00000000	    -66.16335553	      9.62190320	     13.54498868	     89.44475384	    -19.39505839	     34.12076476	     68.20102292	     45.25154575	      0.00000000	      0.00000000	     65.33349139	    -22.95708670	     11.54368167	     74.30545643	     44.58417203	      0.00000000	      0.00000000
      5.01000000	    -13.08758509	     -7.90585751	     -9.17281490	      0.18644518	      1.05401205	     -0.26556792	      0.00000000	      0.50000000	      0.00000000	      0.25000000	     83.03240398	      9.53227663	      8.19874962	    114.33976778	      1.99560541	     16.31196913	      4.58164556	      0.00000000	      0.00000000	     34.09413705	    -15.65693457	     -7.56714626	     34.98458432	      0.61059618	     -9.43790118	     -3.47321296	      0.00000000	      0.00000000	    -66.40257629	      9.72824023	     13.97360108	     89.49486213	    -18.82575302	     34.25125508	     68.36040399	     45.18774778	      0.00000000	      0.00000000	     65.45833868	    -23.38730927	     11.19343354	     74.13793207	     44.54064818	      0.00000000	      0.00000000
      5.01500000	    -13.35233432	     -8.37976674	     -9.70984291	      0.18588532	      1.05524639	     -0.26584583	      0.00000000	      0.50000000	      0.00000000	      0.25000000	     83.37869482	     10.00805354	      7.54418625	    112.99033532	      1.97205337	     17.09268901	      4.36790416	      0.00000000	      0.00000000	     34.44522781	    -16.23641828	     -7.12961713	     36.52764681	      0.63752770	     -9.85834323	     -4.85806515	      0.00000000	      0.00000000	    -66.66040720	      9.86201860	     14.33694397	     89.52887365	    -18.19093602	     34.35956275	     68.53503002	     45.09463972	      0.00000000	      0.00000000	     65.62788856	    -23.93723553	     10.72381216	     73.96993996	     44.48995964	      0.00000000	      0.00000000
      5.02000000	    -13.92720543	     -8.89138015	    -10.17549677	      0.18560338	      1.05616180	     -0.26589230	      0.00000000	      0.50000000	      0.00000000	      0.25000000	     83.86470065	     10.34972324	      6.64905456	    111.41292912	      1.94452244	     17.69971139	      3.81886914	      0.00000000	      0.00000000	     35.24911172	    -16.81920936	     -6.33061470	     38.19817905	      0.66668399	    -10.40389172	     -6.26985455	      0.00000000	      0.00000000	    -66.67995986	     10.30459252	     14.01003899	     89.56534841	    -15.93291541	     34.35431366	     68.11935564	     42.28486783	      0.00000000	      0.00000000	     64.44171318	    -25.39830865	      8.97566009	     75.22057136	     45.02618749	      0.00000000	      0.00000000
      5.02500000	    -14.05868789	     -9.30193974	    -10.61375492	      0.18532816	      1.05756191	     -0.26602185	      0.00000000	      0.50000000	      0.00000000	      0.25000000	     83.73378972	     10.62097419	      5.91269038	    109.72254264	      1.91501963	     18.49738477	      3.41481143	      0.00000000	      0.00000000	     35.66346388	    -17.28501070	     -5.77295106	     40.03674799	      0.69877307	    -10.96866929	     -7.53084552	      0.00000000	      0.00000000	    -67.02943719	     10.38859678	     14.31562969	     89.58695178	    -15.53375185	     34.64617882	     68.38500609	     42.07911748	      0.00000000	      0.00000000	     64.61388265	    -25.86735958	      8.60632587	     74.95596968	     44.99115714	      0.00000000	      0.00000000
      5.03000000	    -14.17281336	     -9.65701719	    -10.76774048	      0.18504568	      1.05881029	     -0.26607681	      0.00000000	      0.50000000	      0.00000000	      0.25000000	     83.43361453	     10.60780890	      5.20969497	    107.90534183	      1.88330350	     19.42572807	      3.09832319	      0.00000000	      0.00000000	     36.25003470	    -17.51801156	     -4.86654263	     42.01405061	      0.73328352	    -11.51479664	     -8.86903668	      0.00000000	      0.00000000	    -67.35961534	     10.56425963	     14.34704737	     89.60162417	    -15.09043827	     34.86614685	     68.59384889	     41.82277252	      0.00000000	      0.00000000	     64.75109044	    -26.46399157	      8.21499524	     74.96993498	     45.00849108	      0.00000000	      0.00000000
      5.03500000	    -14.02769951	     -9.80896925	    -11.13265641	      0.18506378	      1.06006230	     -0.26565716	      0.00000000	      0.50000000	      0.00000000	      0.25000000	     82.76906980	     10.81738328	      4.82587890	    106.03439120	      1.85064925	     20.44795544	      2.86879089	      0.00000000	      0.00000000	     36.52218223	    -17.75310654	     -4.48513151	     44.15309442	      0.77061687	    -11.82456898	     -9.79723991	      0.00000000	      0.00000000	    -67.77568347	     10.27010881	     14.26864886	     89.61023538	    -14.85456058	     35.03186937	     68.67887036	     41.75081941	      0.00000000	      0.00000000	     64.95891913	    -26.87464733	      7.95809297	     75.00729970	     45.00609696	      0.00000000	      0.00000000
      5.04000000	    -14.00160883	    -10.17105087	    -11.19701551	      0.18493490	      1.06141022	     -0.26527928	      0.00000000	      0.50000000	      0.00000000	      0.25000000	     82.03263160	     10.73927412	      4.06757935	    103.90538565	      1.81349109	     21.35526307	      2.65664958	      0.00000000	      0.00000000	     37.11487605	    -17.97402217	     -3.51972031	     46.32311729	      0.80849092	    -12.34618990	    -10.96739523	      0.00000000	      0.00000000	    -68.24699029	     10.39395018	     14.25793516	     89.62449620	    -14.46077282	     35.21544041	     68.86522770	     41.64906911	      0.00000000	      0.00000000	     64.99799071	    -27.56720640	      7.65707219	     75.16195717	     45.03012010	      0.00000000	      0.00000000
      5.04500000	    -13.91701544	    -10.32957658	    -11.21010621	      0.18514744	      1.06254357	     -0.26505897	      0.00000000	      0.50000000	      0.00000000	      0.25000000	     81.12673942	     10.48283840	      3.49215628	    101.70938583	      1.77516366	     22.30787209	      2.56003217	      0.00000000	      0.00000000	     37.69972724	    -17.96328869	     -2.68857725	     48.60996170	      0.84840388	    -12.80756864	    -11.88770105	      0.00000000	      0.00000000	    -68.61714272	     10.45613093	     14.03526796	     89.62363265	    -14.17182870	     35.33855678	     68.98239230	     41.55093026	      0.00000000	      0.00000000	     64.89684822	    -28.15051822	      7.42974547	     75.42698615	     45.07822936	      0.00000000	      0.00000000
      5.05000000	    -14.03906216	    -10.54529192	    -11.18676025	      0.18540893	      1.06326814	     -0.26479835	      0.00000000	      0.50000000	      0.00000000	      0.25000000	     80.34415491	     10.18748029	      2.81727830	     99.37726435	      1.73446046	     23.01184686	      2.65905189	      0.00000000	      0.00000000	     38.58859805	    -17.94251103	     -1.58923753	     50.93220403	      0.88893466	    -13.34263874	    -12.78835614	      0.00000000	      0.00000000	    -68.86668947	     10.76275253	     12.90050399	     89.63871025	    -12.02681610	     35.78393576	     69.52810774	     33.17603276	      0.00000000	      0.00000000	     62.98765690	    -30.35001635	      5.76400646	     77.89815518	     46.72505261	      0.00000000	      0.00000000
      5.05500000	    -13.89653622	    -10.61698872	    -11.20399248	      0.18577678	      1.06420544	     -0.26449160	      0.00000000	      0.50000000	      0.00000000	      0.25000000	     79.20218798	      9.87577954	      2.30343515	     96.94833211	      1.69206760	     23.78150187	      2.92210600	      0.00000000	      0.00000000	     39.18100563	    -17.84419377	     -0.82990467	     53.34362600	      0.93102191	    -13.73284314	    -13.58720775	      0.00000000	      0.00000000	    -69.18407476	     10.70410620	     12.65080111	     89.63796236	    -11.90104608	     35.94969455	     69.66245204	     33.14253305	      0.00000000	      0.00000000	     62.80979974	    -30.80357175	      5.65548997	     78.11146599	     46.77349515	      0.00000000	      0.00000000
      5.06000000	    -13.71320324	    -10.61581768	    -11.20159685	      0.18622504	      1.06497539	     -0.26399420	      0.00000000	      0.50000000	      0.00000000	      0.25000000	     77.96756742	      9.55482260	      1.84042673	     94.47899235	      1.64896949	     24.40364244	      3.24881610	      0.00000000	      0.00000000	     39.76009436	    -17.69106088	     -0.13898194	     55.82467069	      0.97432431	    -13.88584935	    -14.41979950	      0.00000000	      0.00000000	    -69.47657106	     10.56394258	     12.28812897	     89.63597060	    -11.77152610	     36.05171879	     69.68780487	     33.10281055	      0.00000000	      0.00000000	     62.64636086	    -31.26259093	      5.48886615	     78.48464509	     46.83947302	      0.00000000	      0.00000000
      5.06500000	    -13.80631114	    -10.54505004	    -11.46522640	      0.18701781	      1.06499011	     -0.26359880	      0.00000000	      0.50000000	      0.00000000	      0.25000000	     76.97176665	      9.35481943	      1.40052104	     91.93238607	      1.60452283	     24.85129221	      3.76114958	      0.00000000	      0.00000000	     40.63092810	    -17.65637416	      0.34228014	     58.48175949	      1.02069926	    -13.81191423	    -14.88945134	      0.00000000	      0.00000000	    -69.48329912	     10.45686320	     11.40205407	     89.63658223	    -10.69610852	     36.33676780	     69.18876891	     32.77635434	      0.00000000	      0.00000000	     60.83880055	    -32.57110908	      4.31042809	     80.61851699	     47.19871345	      0.00000000	      0.00000000
      5.07000000	    -13.50477769	    -10.00389928	    -11.52087390	      0.18749619	      1.06575827	     -0.26279767	      0.00000000	      0.50000000	      0.00000000	      0.25000000	     75.61086613	      8.94341899	      1.44246310	     89.31602880	      1.55885878	     24.91626542	      3.87202874	      0.00000000	      0.00000000	     40.97118339	    -17.09820176	      0.51442686	     60.72678841	      1.05988240	    -13.94856568	    -15.11708838	      0.00000000	      0.00000000	    -69.57482266	      9.93918497	     10.70229796	     89.62135071	    -10.75471632	     36.28835997	     69.19556176	     32.76798797	      0.00000000	      0.00000000	     60.68460456	    -32.46903698	      4.34587921	     80.58400593	     47.20080817	      0.00000000	      0.00000000
